<?xml version="1.0" standalone="no"?>
<!DOCTYPE svg PUBLIC "-//W3C//DTD SVG 20010904//EN"
 "http://www.w3.org/TR/2001/REC-SVG-20010904/DTD/svg10.dtd">
<svg version="1.0" xmlns="http://www.w3.org/2000/svg"
 width="1000.000000pt" height="1000.000000pt" viewBox="0 0 1000.000000 1000.000000"
 preserveAspectRatio="xMidYMid meet">
<metadata>
Created by potrace 1.14, written by Peter Selinger 2001-2017
</metadata>
<g transform="translate(0.000000,1000.000000) scale(0.100000,-0.100000)"
fill="#000000" stroke="none">
<path d="M0 5010 l0 -3280 2505 0 2505 0 0 3280 0 3280 -2505 0 -2505 0 0
-3280z m1560 1175 l0 -845 903 2 902 3 3 843 2 842 335 0 335 0 0 -2020 0
-2020 -335 0 -335 0 -2 898 -3 897 -902 3 -903 2 0 -900 0 -900 -340 0 -340 0
0 2020 0 2020 340 0 340 0 0 -845z"/>
<path d="M5930 5010 l0 -2040 355 0 355 0 2 1429 3 1430 264 -427 c146 -235
524 -845 841 -1357 317 -511 596 -963 621 -1002 l44 -73 353 0 352 0 0 2040 0
2040 -350 0 -350 0 -2 -1436 -3 -1436 -625 1009 c-343 554 -743 1200 -889
1436 l-264 427 -354 0 -353 0 0 -2040z"/>
</g>
</svg>
